<svg width="26" height="48" viewBox="0 0 26 48" fill="none" xmlns="http://www.w3.org/2000/svg">
<path d="M13.8128 14.6H13.9568C15.7747 14.6526 17.5525 15.1468 19.1368 16.04L19.1488 16.019C19.729 14.7592 20.3973 13.5419 21.1488 12.376C21.8158 11.326 22.8888 9.86505 22.7628 9.70105C22.5148 9.37705 20.7288 9.84605 18.7318 10.824C19.261 9.65077 19.877 8.51862 20.5748 7.43705C21.1447 6.6996 21.6279 5.899 22.0148 5.05105C21.8018 4.77305 20.3218 5.15105 18.6258 5.95105C19.0252 5.1099 19.4781 4.29522 19.9818 3.51205C20.4464 2.9105 20.8403 2.25755 21.1558 1.56605C20.7998 1.10505 16.0998 2.88005 14.4368 5.32005C13.0188 2.73305 8.50577 0.516048 8.10777 0.945048C8.3553 1.66351 8.68481 2.35104 9.08977 2.99405C9.63317 4.03709 10.0845 5.12555 10.4388 6.24705C8.42077 4.82705 6.30877 3.96905 6.01577 4.28405C6.3191 5.16637 6.72345 6.01064 7.22077 6.80005C7.81261 7.94285 8.3177 9.12852 8.73177 10.347C6.83777 9.18305 5.10477 8.54705 4.83177 8.84705C4.69077 8.99805 5.61877 10.556 6.18277 11.664C6.88571 13.0186 7.47861 14.4275 7.95577 15.877C9.62014 15.0097 11.4731 14.5673 13.3498 14.589C13.4998 14.583 13.6568 14.59 13.8128 14.6Z" stroke="#4E424C" stroke-miterlimit="10"/>
<path d="M14.3095 15.114L14.0975 14.893C14.0694 14.8635 14.0357 14.8399 13.9984 14.8235C13.9612 14.8071 13.921 14.7983 13.8803 14.7974C13.8396 14.7966 13.7992 14.8038 13.7613 14.8187C13.7234 14.8335 13.6888 14.8557 13.6595 14.884L13.4385 15.095C13.4969 15.039 13.5658 14.9951 13.6412 14.9658C13.7166 14.9365 13.797 14.9223 13.8779 14.9241C13.9588 14.9258 14.0385 14.9435 14.1126 14.9761C14.1866 15.0087 14.2535 15.0555 14.3095 15.114Z" stroke="#4E424C" stroke-miterlimit="10"/>
<path d="M13.5262 38.2797L9.23047 42.3923L13.1896 46.5277L17.4853 42.415L13.5262 38.2797Z" stroke="#4E424C" stroke-miterlimit="10"/>
<path d="M17.6152 26.846L21.3702 30.769L24.8702 27.419C24.8082 26.917 24.7416 26.4226 24.6702 25.936L21.7512 22.887L17.6152 26.846Z" stroke="#4E424C" stroke-miterlimit="10"/>
<path d="M21.4072 38.6591L24.9142 35.3001C24.9688 35.2479 25.0126 35.1855 25.043 35.1163C25.0734 35.0472 25.09 34.9728 25.0916 34.8973C25.0933 34.8218 25.0801 34.7467 25.0527 34.6764C25.0254 34.606 24.9844 34.5417 24.9322 34.4871L21.3702 30.7671L17.4482 34.5221L21.4072 38.6591Z" stroke="#4E424C" stroke-miterlimit="10"/>
<path d="M24.9142 35.3001L21.4072 38.6571L25.2592 34.9701C25.277 34.9515 25.2868 34.9268 25.2868 34.9011C25.2868 34.8754 25.277 34.8507 25.2592 34.8321L24.9292 34.4871C25.035 34.5969 25.0929 34.7442 25.0901 34.8967C25.0873 35.0491 25.024 35.1942 24.9142 35.3001Z" stroke="#4E424C" stroke-miterlimit="10"/>
<path d="M18 18.9651L14.31 15.1141C14.2541 15.0557 14.1872 15.0088 14.1132 14.9762C14.0391 14.9437 13.9594 14.926 13.8785 14.9242C13.7976 14.9225 13.7172 14.9366 13.6418 14.966C13.5664 14.9953 13.4975 15.0392 13.439 15.0951L9.74805 18.6281L13.861 22.9281L18 18.9651Z" stroke="#4E424C" stroke-miterlimit="10"/>
<path d="M12.5996 47.0891C12.8466 47.0971 13.0906 47.1091 13.3416 47.1091C13.4736 47.1091 13.6016 47.1001 13.7336 47.0981L13.1866 46.5271L12.5996 47.0891Z" stroke="#4E424C" stroke-miterlimit="10"/>
<path d="M17.6166 26.8463L13.6943 30.6013L17.4494 34.5236L21.3717 30.7686L17.6166 26.8463Z" stroke="#4E424C" stroke-miterlimit="10"/>
<path d="M17.4486 34.5247L13.5264 38.2798L17.4855 42.4151L21.4077 38.66L17.4486 34.5247Z" stroke="#4E424C" stroke-miterlimit="10"/>
<path d="M13.8608 22.9246L9.93848 26.6797L13.6935 30.602L17.6158 26.8469L13.8608 22.9246Z" stroke="#4E424C" stroke-miterlimit="10"/>
<path d="M9.74744 18.6284L5.8252 22.3835L9.93785 26.6792L13.8601 22.9241L9.74744 18.6284Z" stroke="#4E424C" stroke-miterlimit="10"/>
<path d="M17.9967 18.965L13.8613 22.9241L17.6164 26.8464L21.7518 22.8873L17.9967 18.965Z" stroke="#4E424C" stroke-miterlimit="10"/>
<path d="M9.23049 42.3921L6.02148 45.4641C8.0485 46.5349 10.307 47.0929 12.5995 47.0891L13.1865 46.5271L9.23049 42.3921Z" stroke="#4E424C" stroke-miterlimit="10"/>
<path d="M13.1895 46.527L13.7365 47.098C16.0811 47.1389 18.4006 46.6109 20.4965 45.559L17.4855 42.415L13.1895 46.527Z" stroke="#4E424C" stroke-miterlimit="10"/>
<path d="M25.442 35.0199C25.442 34.9459 25.442 34.8779 25.442 34.7999C25.405 32.9739 25.209 30.1329 24.874 27.4189L21.374 30.7689L24.936 34.4889L25.266 34.8339C25.2838 34.8525 25.2936 34.8773 25.2936 34.9029C25.2936 34.9286 25.2838 34.9533 25.266 34.9719L21.414 38.6589L24.225 41.5999C25.0918 39.6548 25.5094 37.5395 25.447 35.4109C25.447 35.2929 25.444 35.1529 25.442 35.0199Z" stroke="#4E424C" stroke-miterlimit="10"/>
<path d="M17.4854 42.415L20.4994 45.559C22.1328 44.6721 23.4385 43.2844 24.2243 41.6L21.4074 38.658L17.4854 42.415Z" stroke="#4E424C" stroke-miterlimit="10"/>
<path d="M21.752 22.887L23.584 21.133C23.526 20.986 23.467 20.838 23.406 20.717C22.6651 19.1921 21.5906 17.8533 20.262 16.8L18 18.965L21.752 22.887Z" stroke="#4E424C" stroke-miterlimit="10"/>
<path d="M24.6709 25.9362C24.4768 24.3817 24.1421 22.8481 23.6709 21.3542C23.6614 21.3296 23.6459 21.3078 23.6258 21.2908C23.6057 21.2738 23.5817 21.2621 23.5559 21.2568C23.5301 21.2516 23.5034 21.2529 23.4782 21.2606C23.4531 21.2684 23.4302 21.2823 23.4119 21.3012L21.7549 22.8872L24.6709 25.9362Z" stroke="#4E424C" stroke-miterlimit="10"/>
<path d="M9.74723 18.6281L7.38523 16.1611C5.82535 17.1409 4.54201 18.5035 3.65723 20.1191L5.82523 22.3831L9.74723 18.6281Z" stroke="#4E424C" stroke-miterlimit="10"/>
<path d="M13.4387 15.1001L13.6597 14.8891C13.689 14.8608 13.7236 14.8386 13.7615 14.8238C13.7994 14.8089 13.8399 14.8017 13.8806 14.8026C13.9213 14.8034 13.9614 14.8123 13.9987 14.8287C14.036 14.8451 14.0696 14.8687 14.0977 14.8981L14.3097 15.1191L17.9997 18.9651L20.2617 16.8001C19.9046 16.5222 19.5287 16.2693 19.1367 16.0431C17.5525 15.1499 15.7747 14.6557 13.9567 14.6031H13.8127C13.6567 14.5981 13.5017 14.5911 13.3447 14.5911C11.4681 14.5693 9.61511 15.0118 7.95074 15.8791C7.76374 15.9791 7.56774 16.0581 7.38574 16.1691L9.74774 18.6361L13.4387 15.1001Z" stroke="#4E424C" stroke-miterlimit="10"/>
<path d="M13.6937 30.6018L9.77148 34.3569L13.5266 38.2792L17.4488 34.5241L13.6937 30.6018Z" stroke="#4E424C" stroke-miterlimit="10"/>
<path d="M6.01541 30.4345L1.71973 34.5471L5.47485 38.4694L9.77053 34.3567L6.01541 30.4345Z" stroke="#4E424C" stroke-miterlimit="10"/>
<path d="M9.77127 34.3559L5.47559 38.4685L9.23071 42.3907L13.5264 38.2781L9.77127 34.3559Z" stroke="#4E424C" stroke-miterlimit="10"/>
<path d="M9.93787 26.6797L6.01562 30.4348L9.77075 34.3571L13.693 30.6019L9.93787 26.6797Z" stroke="#4E424C" stroke-miterlimit="10"/>
<path d="M5.47581 38.47L2.38281 41.43C3.13363 43.1289 4.40894 44.5427 6.02181 45.464L9.23081 42.392L5.47581 38.47Z" stroke="#4E424C" stroke-miterlimit="10"/>
<path d="M1.72056 34.547L6.01557 30.435L1.99956 26.238C1.60756 28.946 1.35557 31.974 1.27357 34.08C1.26057 34.414 1.25256 34.718 1.24856 35C1.24856 35.14 1.24256 35.287 1.24256 35.412C1.18673 37.4767 1.57588 39.5291 2.38356 41.43L5.47657 38.47L1.72056 34.547Z" stroke="#4E424C" stroke-miterlimit="10"/>
<path d="M3.65727 20.1191C3.52827 20.3471 3.40227 20.5781 3.28227 20.8191C2.64312 22.4914 2.22231 24.2392 2.03027 26.0191L5.83027 22.3851L3.65727 20.1191Z" stroke="#4E424C" stroke-miterlimit="10"/>
<path d="M9.93902 26.6792L5.82602 22.3792L2.03102 26.0132C2.02002 26.0862 2.01002 26.1601 1.99902 26.2341L6.01602 30.4342L9.93902 26.6792Z" stroke="#4E424C" stroke-miterlimit="10"/>
</svg>
