<svg width="24" height="24" viewBox="0 0 24 24" fill="none" xmlns="http://www.w3.org/2000/svg">
<path fill-rule="evenodd" clip-rule="evenodd" d="M11.2326 4.03429C10.7239 4.08211 10.0359 4.2303 9.49554 4.40836C7.44592 5.08386 5.78235 6.53289 4.82675 8.47506C3.89134 10.3762 3.74557 12.491 4.41047 14.5143C5.07875 16.5479 6.54358 18.2266 8.47376 19.171C10.3941 20.1105 12.4842 20.2565 14.5023 19.592C17.5506 18.5882 19.686 15.8768 19.9717 12.6473C20.1456 10.6811 19.5106 8.60036 18.2567 7.02753C17.9538 6.64763 17.4054 6.09516 17.0227 5.78433C15.4156 4.47921 13.3003 3.83981 11.2326 4.03429ZM12.5336 5.49513C17.1591 5.90463 19.898 10.7735 17.8309 14.9123C17.645 15.2845 17.3553 15.752 17.1855 15.9538L17.0968 16.0592L12.5226 11.4851C8.21508 7.17763 7.95156 6.90737 8.00347 6.85002C8.10684 6.73578 8.71136 6.35517 9.08683 6.16794C9.88637 5.76921 10.5774 5.58018 11.5902 5.48311C11.8454 5.45869 12.168 5.46278 12.5336 5.49513ZM15.9944 17.1504C15.8763 17.2808 15.247 17.6682 14.8173 17.8749C14.1756 18.1836 13.5526 18.3739 12.8504 18.4759C12.3665 18.5462 11.4417 18.5286 10.926 18.4394C8.1471 17.9587 6.04188 15.8536 5.5595 13.0731C5.46182 12.51 5.45283 11.5928 5.53964 11.0465C5.61005 10.6037 5.76777 10.0057 5.90595 9.6578C6.12829 9.09811 6.53316 8.3784 6.81238 8.04656L6.90103 7.94124L11.4752 12.5154C15.7827 16.8228 16.0463 17.093 15.9944 17.1504Z" fill="#FEAD1D"/>
</svg>
