<svg width="68" height="30" viewBox="0 0 68 30" fill="none" xmlns="http://www.w3.org/2000/svg">
<g clip-path="url(#clip0_309:385)">
<path d="M68 13.1283V19.1497C68 22.4616 67.3512 25.0281 66.0521 26.8479C64.7318 28.6912 62.9397 29.6129 60.6801 29.6129L60.6461 29.5144C58.9886 29.5144 57.6796 28.9869 56.7163 27.9347C55.7317 26.8812 55.2287 25.6528 55.2061 24.2494L58.3624 23.0973C58.3624 23.8289 58.6188 24.5382 59.1345 25.2266C59.6275 25.8901 60.299 26.2233 61.149 26.2233C62.2016 26.2233 63.0856 25.6722 63.8024 24.5701C64.4966 23.4888 64.8989 21.9341 65.0108 19.9062C64.6085 20.4114 63.9922 20.8709 63.1649 21.2887C62.3362 21.7051 61.4295 21.9133 60.4449 21.9133C58.8101 21.9133 57.4331 21.3317 56.3139 20.1699C56.2261 20.0783 56.1411 19.9839 56.0603 19.8868C56.0561 19.8937 56.0518 19.8993 56.0462 19.9062C54.9709 21.2887 53.482 21.9786 51.5794 21.9786L51.5454 22.1771C50.0013 22.1771 48.7815 21.7593 47.8862 20.9264C47.0121 20.1144 46.5757 18.9734 46.5757 17.5048C46.5757 17.3952 46.5814 17.1759 46.5928 16.8455C46.6041 16.5165 46.6211 16.0779 46.6437 15.5296C46.665 14.9813 46.682 14.5372 46.6933 14.1971C46.7047 13.857 46.7103 13.6113 46.7103 13.4573C46.7103 11.6583 46.1734 10.7589 45.0982 10.7589C44.2028 10.7589 43.4534 11.3183 42.8485 12.437C42.2662 13.5336 41.8852 15.1576 41.7067 17.3064C41.6613 19.2149 41.6613 20.7293 41.7067 21.8481H37.9794C38.0134 21.5136 38.0446 20.8542 38.0715 19.8729C36.6704 21.2776 35.0384 21.9786 33.1769 21.9786L33.2109 22.0119C31.7787 22.0119 30.5915 21.5455 29.6523 20.6099C29.5332 20.492 29.4228 20.3698 29.3207 20.2435C28.8745 20.739 28.3248 21.1332 27.6703 21.4247C26.8416 21.794 25.891 21.9786 24.8158 21.9786L24.4134 21.88C22.7347 21.88 21.3463 21.3873 20.2484 20.399C19.1519 19.412 18.6037 18.042 18.6037 16.2875C18.6037 16.0682 18.615 15.6726 18.6377 15.1021C18.6589 14.5316 18.6929 13.7751 18.7383 12.8326C18.3104 12.8326 17.4207 12.8646 16.0693 12.9312C15.3935 12.9756 14.807 13.002 14.3126 13.0131C13.8167 13.0242 13.4116 13.0408 13.0971 13.0617V13.8195C13.0971 16.0779 12.5162 17.9865 11.3574 19.5439C10.1745 21.1235 8.55808 21.9133 6.50675 21.9133C4.9215 21.9133 3.64933 21.4192 2.686 20.4323C1.72408 19.4676 1.24242 18.2933 1.24242 16.9121L4.56733 15.9905C4.56733 16.7025 4.74583 17.3022 5.10425 17.7908C5.46267 18.2794 5.96558 18.5237 6.61583 18.5237C7.667 18.5237 8.4065 18.0851 8.8315 17.205C9.27917 16.282 9.503 15.1604 9.503 13.8417V12.605C9.503 12.0664 9.51433 11.3904 9.537 10.577C9.55825 9.76362 9.571 9.0335 9.571 8.38389V6.65298C9.571 5.59805 9.75942 4.63057 10.1363 3.75054C9.979 3.72972 9.7665 3.69641 9.49875 3.65199C9.22958 3.60896 8.89525 3.55344 8.4915 3.4882C7.68683 3.35633 7.04933 3.28971 6.579 3.28971C5.57317 3.28971 4.80108 3.52012 4.26417 3.98096C3.72725 4.4418 3.4595 5.01229 3.4595 5.69244C3.4595 6.98611 4.20892 7.744 5.70917 7.96192L4.56733 11.2197C3.31358 11.067 2.23833 10.5076 1.343 9.54153C0.447667 8.59904 0 7.38171 0 5.88954C0 4.13504 0.62475 2.7095 1.87567 1.61293C3.10392 0.53718 4.7005 0 6.66542 0C7.514 0 8.80883 0.230418 10.5513 0.691255C12.2924 1.15209 13.3422 1.38251 13.7006 1.38251L13.7346 1.44775C13.3535 2.52211 13.1637 4.27801 13.1637 6.71267V8.63652C13.1637 9.17509 13.175 9.61927 13.1977 9.96906C13.8947 9.94824 14.9756 9.91492 16.439 9.87051C17.1587 9.84968 17.7494 9.83303 18.2113 9.82192C18.6731 9.81082 18.9947 9.80527 19.1746 9.80527C19.3304 7.5455 19.4381 5.77434 19.4933 4.49177C19.5486 3.20781 19.5557 2.39163 19.5103 2.04045H23.2716C23.2716 2.45687 23.2376 3.23557 23.171 4.37656C23.103 5.51754 22.9911 7.04164 22.8353 8.95022C22.678 10.863 22.5661 12.376 22.4995 13.4878C22.4315 14.5996 22.3989 15.3311 22.3989 15.6837C22.3989 16.6082 22.6213 17.3452 23.0704 17.8963C23.4954 18.4251 24.1216 18.6889 24.9503 18.6889C25.4419 18.6889 25.8797 18.5903 26.2607 18.3932C26.6404 18.1947 26.9322 17.9768 27.1334 17.7339C27.3573 17.4937 27.5471 17.0981 27.7043 16.5499C27.7936 16.2653 27.8658 16.0182 27.9225 15.81C27.9778 15.6018 28.0287 15.42 28.0741 15.2673C28.1407 14.9813 28.2413 14.4553 28.3758 13.6877L28.4098 13.6988C28.4396 13.3851 28.4736 13.063 28.5104 12.7327C28.6889 11.1545 28.9581 9.33333 29.3165 7.27205L32.9757 7.76482C32.6853 9.12512 32.4162 10.6603 32.1697 12.3718C32.0578 13.2046 31.9742 13.9181 31.9189 14.5094C31.8622 15.1021 31.8339 15.5741 31.8339 15.9252C31.8339 16.7372 32.0025 17.3841 32.3382 17.8657C32.674 18.371 33.1656 18.6222 33.8158 18.6222C35.0243 18.6222 36.0655 17.9948 36.9382 16.7372C37.5388 15.8725 37.9497 14.9453 38.1678 13.957C38.1678 13.9556 38.1678 13.9556 38.1678 13.9542C38.1721 13.51 38.1763 13.0492 38.1806 12.5689V11.5986C38.1806 11.2586 38.1692 10.9018 38.1466 10.5284C38.1027 9.76085 38.0687 9.11401 38.046 8.58794C38.0247 8.30338 38.0134 8.07713 38.0134 7.91334V7.60102H41.4375V7.69958C41.4375 7.744 41.4262 7.82034 41.4049 7.93C41.3596 8.14931 41.3256 8.42276 41.3043 8.75173C41.259 9.12512 41.225 9.45409 41.2038 9.73864C41.7619 9.03767 42.4334 8.45607 43.2183 7.99523C44.0243 7.5344 44.8857 7.30398 45.8037 7.30398C47.1693 7.30398 48.2772 7.72179 49.1286 8.55462C49.9786 9.38885 50.4036 10.4299 50.4036 11.6805C50.4036 11.8568 50.3923 12.1414 50.371 12.5356C50.3483 12.9312 50.3143 13.435 50.2704 14.05C50.2251 14.6635 50.1911 15.1687 50.1698 15.5629C50.1472 15.9572 50.1358 16.2431 50.1358 16.418C50.1358 17.8879 50.7181 18.6222 51.8812 18.6222C53.1604 18.6222 54.094 17.4812 54.6819 15.1979C54.6819 15.1965 54.6819 15.1951 54.6819 15.1951C54.7839 13.0547 55.5064 11.2141 56.8508 9.6734C58.2831 8.02855 60.1191 7.20543 62.3588 7.20543C63.6126 7.20543 64.7204 7.51358 65.6823 8.1271C66.6457 8.76283 67.3172 9.4874 67.6982 10.298L64.8777 12.2399C64.6524 11.7791 64.3393 11.396 63.937 11.0878C63.4893 10.7589 62.9397 10.5951 62.2908 10.5951C61.2836 10.5951 60.3769 11.0226 59.5708 11.8776C58.7648 12.7327 58.3624 13.8084 58.3624 15.1021C58.3624 16.1334 58.5976 16.9566 59.0679 17.5701C59.5382 18.2072 60.1644 18.5237 60.9478 18.5237C62.0231 18.5237 62.8844 18.0087 63.5332 16.9774C64.1835 15.9474 64.4399 14.7079 64.3067 13.2602V13.1283H68Z" fill="white"/>
<path d="M58.5083 6.41566C59.0356 6.41566 59.4631 5.9968 59.4631 5.48011C59.4631 4.96342 59.0356 4.54456 58.5083 4.54456C57.981 4.54456 57.5535 4.96342 57.5535 5.48011C57.5535 5.9968 57.981 6.41566 58.5083 6.41566Z" fill="#512700"/>
<path d="M58.5083 5.97975C58.79 5.97975 59.0183 5.75603 59.0183 5.48005C59.0183 5.20407 58.79 4.98035 58.5083 4.98035C58.2266 4.98035 57.9983 5.20407 57.9983 5.48005C57.9983 5.75603 58.2266 5.97975 58.5083 5.97975Z" fill="white"/>
<path d="M56.2827 13.1741C56.2657 13.1741 56.2487 13.1727 56.2317 13.1685C56.1184 13.1407 56.049 13.0283 56.0773 12.9159C56.0972 12.8368 56.5859 10.9518 57.7801 9.93294C57.868 9.85798 58.0026 9.86631 58.0805 9.95376C58.157 10.0398 58.1485 10.1717 58.0592 10.248C56.967 11.1808 56.4938 12.9992 56.4896 13.0186C56.4655 13.1116 56.3777 13.1741 56.2827 13.1741Z" fill="white"/>
<path d="M35.8403 2.69288C35.8162 2.54297 35.7737 2.39583 35.7085 2.25703C35.3586 1.50331 34.425 1.05913 33.6033 1.25485C33.5977 1.25624 33.4574 1.05219 33.4418 1.03276C33.3795 0.960579 33.3115 0.891176 33.2393 0.828713C33.0933 0.703788 32.929 0.599683 32.7519 0.521952C32.3949 0.366489 31.9898 0.337339 31.6115 0.424787C31.3452 0.485862 31.093 0.603847 30.8819 0.773191C30.855 0.794012 30.8281 0.817609 30.7941 0.821773C30.7544 0.827325 30.7162 0.80928 30.6808 0.792624C29.9285 0.431728 28.9298 0.66631 28.424 1.32286C27.9183 1.97803 27.9579 2.98021 28.5104 3.5979C28.8207 3.94491 29.2726 4.15034 29.7387 4.19476C29.7146 4.36411 29.6749 4.63617 29.6636 4.725C29.6154 5.05258 29.5673 5.39266 29.5219 5.72579C29.5106 5.80908 29.5701 5.88681 29.6565 5.89791L33.3427 6.399C33.4277 6.41011 33.507 6.35181 33.5183 6.26991C33.5368 6.15193 33.5523 6.03256 33.5665 5.92012C33.5793 5.81602 33.592 5.71053 33.609 5.60642C33.6359 5.42597 33.6614 5.24275 33.6855 5.06785C33.6898 5.03315 33.7167 4.85132 33.7294 4.75693C34.2012 4.83327 34.7041 4.74027 35.0965 4.4696C35.6618 4.08094 35.9451 3.35637 35.8403 2.69288ZM33.0962 5.91041L30.0234 5.4926L30.0518 5.29133L33.1245 5.70775L33.0962 5.91041ZM34.8826 3.9463C34.4746 4.30303 33.8187 4.35022 33.3639 4.05318C33.2407 3.97267 33.1288 3.86718 32.9871 3.82554C32.8454 3.7839 32.657 3.83387 32.6188 3.97545C32.5862 4.09482 32.674 4.21142 32.7647 4.29748C32.9163 4.44045 33.0948 4.55427 33.2888 4.63478C33.286 4.65699 33.2832 4.67364 33.2407 4.91378L33.1925 5.24969L30.1198 4.83327L30.1538 4.5862L30.1693 4.4696L30.2104 4.18782C30.4173 4.15867 30.6198 4.09482 30.804 3.99488C30.9244 3.92964 31.0434 3.84497 31.1001 3.72143C31.1553 3.5979 31.1228 3.42855 30.9995 3.36748C30.8479 3.29252 30.6793 3.40912 30.5334 3.4924C30.0348 3.77696 29.3378 3.67146 28.951 3.25088C28.5643 2.8303 28.5288 2.14043 28.8703 1.68376C29.2117 1.22709 29.8931 1.05219 30.4201 1.28539C30.3521 1.48665 30.2841 1.68654 30.2147 1.8878C30.1764 2.00163 30.1396 2.13488 30.2062 2.23482C30.3039 2.38057 30.549 2.33337 30.6638 2.20012C30.7785 2.06686 30.8083 1.88503 30.8706 1.72124C31.0618 1.22431 31.6143 0.882848 32.1541 0.936982C32.6938 0.991116 33.1684 1.43946 33.2336 1.96692C33.2506 2.0974 33.2435 2.23066 33.2676 2.35974C33.2917 2.48883 33.354 2.6207 33.4702 2.68733C33.5863 2.75395 33.762 2.72758 33.8187 2.60821C33.8456 2.55407 33.8442 2.49022 33.8428 2.42915C33.8371 2.21122 33.8314 1.99468 33.8243 1.77676C34.3655 1.7018 34.9393 1.99885 35.1758 2.48051C35.4138 2.96078 35.2906 3.59096 34.8826 3.9463Z" fill="#512700"/>
<path d="M34.8954 3.93512C34.4874 4.29185 33.8315 4.33905 33.3767 4.042C33.2535 3.96149 33.1416 3.856 32.9999 3.81436C32.8582 3.77272 32.6698 3.82269 32.6316 3.96427C32.599 4.08364 32.6868 4.20024 32.7775 4.2863C32.9291 4.42927 33.1076 4.54309 33.3016 4.6236C33.2988 4.64581 33.296 4.66246 33.2535 4.9026L33.2053 5.23851L30.1325 4.82209L30.1665 4.57502L30.1821 4.45842L30.2232 4.17664C30.43 4.14749 30.6326 4.08364 30.8168 3.9837C30.9372 3.91846 31.0562 3.83379 31.1129 3.71025C31.1681 3.58672 31.1355 3.41737 31.0123 3.3563C30.8607 3.28134 30.6921 3.39794 30.5462 3.48122C30.0475 3.76578 29.3505 3.66028 28.9638 3.2397C28.577 2.81912 28.5416 2.12925 28.883 1.67258C29.2245 1.21591 29.9059 1.04101 30.4329 1.2742C30.3649 1.47547 30.2969 1.67535 30.2275 1.87662C30.1892 1.99044 30.1524 2.1237 30.219 2.22364C30.3167 2.36939 30.5618 2.32219 30.6765 2.18894C30.7913 2.05568 30.821 1.87385 30.8834 1.71006C31.0746 1.21313 31.6271 0.871667 32.1669 0.925801C32.7066 0.979936 33.1812 1.42828 33.2464 1.95574C33.2634 2.08622 33.2563 2.21947 33.2804 2.34856C33.3045 2.47765 33.3668 2.60952 33.483 2.67615C33.5991 2.74277 33.7748 2.7164 33.8315 2.59703C33.8584 2.54289 33.857 2.47904 33.8556 2.41797C33.8499 2.20004 33.8442 1.9835 33.8371 1.76558C34.3783 1.69062 34.9521 1.98767 35.1886 2.46933C35.4281 2.9496 35.3034 3.57839 34.8954 3.93512Z" fill="#FEAD1D"/>
<path d="M29.0941 2.90522C29.0417 2.90522 28.9907 2.87607 28.9666 2.8261C28.9595 2.81083 28.7782 2.43467 29.0459 2.16816C29.1012 2.11264 29.1904 2.11264 29.2457 2.16677C29.3009 2.22091 29.3023 2.30835 29.2471 2.36249C29.1196 2.4888 29.2202 2.70395 29.2216 2.70534C29.2556 2.77474 29.2258 2.85803 29.155 2.88995C29.1352 2.90106 29.1153 2.90522 29.0941 2.90522Z" fill="white"/>
</g>
<defs>
<clipPath id="clip0_309:385">
<rect width="68" height="29.6129" fill="white"/>
</clipPath>
</defs>
</svg>
