<svg width="24" height="24" viewBox="0 0 24 24" fill="none" xmlns="http://www.w3.org/2000/svg">
<path d="M14.8 16.397H14.5597L14.4096 16.5847L12 19.5966L9.59043 16.5847L9.44031 16.397H9.2H4C3.86739 16.397 3.74021 16.3443 3.64645 16.2506C3.55268 16.1568 3.5 16.0296 3.5 15.897V5C3.5 4.86739 3.55268 4.74021 3.64645 4.64645C3.74021 4.55268 3.86739 4.5 4 4.5H20C20.1326 4.5 20.2598 4.55268 20.3536 4.64645C20.4473 4.74021 20.5 4.86739 20.5 5V15.897C20.5 16.0296 20.4473 16.1568 20.3536 16.2506C20.2598 16.3443 20.1326 16.397 20 16.397H14.8Z" stroke="#FEAD1D"/>
<path d="M11.7813 8L12.6309 8L12.6309 11.1699L11.7813 11.1699L11.7813 8ZM12.6807 11.9902C12.6807 12.1172 12.6387 12.2217 12.5547 12.3037C12.4688 12.3857 12.3525 12.4268 12.2061 12.4268C12.0615 12.4268 11.9463 12.3857 11.8604 12.3037C11.7744 12.2217 11.7314 12.1172 11.7314 11.9902C11.7314 11.8613 11.7754 11.7559 11.8633 11.6738C11.9492 11.5918 12.0635 11.5508 12.2061 11.5508C12.3486 11.5508 12.4639 11.5918 12.5518 11.6738C12.6377 11.7559 12.6807 11.8613 12.6807 11.9902Z" fill="#FEAD1D"/>
</svg>
