<svg width="24" height="24" viewBox="0 0 24 24" fill="none" xmlns="http://www.w3.org/2000/svg">
<path d="M3.51499 23.2081C3.67118 23.2946 3.84768 23.3378 4.02617 23.333C4.20466 23.3283 4.37862 23.2758 4.52998 23.1811L11.9999 18.5122L19.4698 23.1811C19.6212 23.2757 19.7951 23.3281 19.9736 23.3328C20.152 23.3375 20.3284 23.2943 20.4846 23.2078C20.6407 23.1212 20.7708 22.9945 20.8614 22.8407C20.952 22.6869 20.9998 22.5116 20.9998 22.3331V4.33334C20.9998 3.5377 20.6837 2.77465 20.1211 2.21204C19.5585 1.64944 18.7955 1.33337 17.9998 1.33337H5.99996C5.20432 1.33337 4.44127 1.64944 3.87867 2.21204C3.31607 2.77465 3 3.5377 3 4.33334V22.3331C2.99991 22.5117 3.04763 22.687 3.13819 22.8408C3.22875 22.9947 3.35886 23.1215 3.51499 23.2081ZM4.99998 4.33334C4.99998 4.06813 5.10533 3.81377 5.29287 3.62624C5.4804 3.43871 5.73475 3.33335 5.99996 3.33335H17.9998C18.265 3.33335 18.5194 3.43871 18.7069 3.62624C18.8945 3.81377 18.9998 4.06813 18.9998 4.33334V20.5331L12.5299 16.4892C12.371 16.3899 12.1873 16.3372 11.9999 16.3372C11.8125 16.3372 11.6288 16.3899 11.4699 16.4892L4.99998 20.5331V4.33334Z" fill="#512700"/>
</svg>
