<svg width="24" height="24" viewBox="0 0 24 24" fill="none" xmlns="http://www.w3.org/2000/svg">
<path d="M3.51499 22.8747C3.67118 22.9613 3.84768 23.0044 4.02617 22.9996C4.20466 22.9949 4.37862 22.9424 4.52998 22.8477L11.9999 18.1788L19.4698 22.8477C19.6212 22.9424 19.7951 22.9947 19.9736 22.9994C20.152 23.0041 20.3284 22.9609 20.4846 22.8744C20.6407 22.7879 20.7708 22.6611 20.8614 22.5073C20.952 22.3535 20.9998 22.1783 20.9998 21.9998V3.99996C20.9998 3.20432 20.6837 2.44127 20.1211 1.87867C19.5585 1.31607 18.7955 1 17.9998 1H5.99996C5.20432 1 4.44127 1.31607 3.87867 1.87867C3.31607 2.44127 3 3.20432 3 3.99996V21.9998C2.99991 22.1783 3.04763 22.3536 3.13819 22.5075C3.22875 22.6613 3.35886 22.7882 3.51499 22.8747Z" fill="#512700"/>
</svg>
