<svg width="31" height="24" viewBox="0 0 31 24" fill="none" xmlns="http://www.w3.org/2000/svg">
<g clip-path="url(#clip0)">
<path d="M30.3318 9.22396C30.2378 8.62673 30.0719 8.04055 29.8175 7.48756C28.4516 4.48479 24.8074 2.71521 21.6 3.49493C21.5779 3.50046 21.0304 2.68756 20.9696 2.61014C20.7263 2.32258 20.4608 2.05161 20.1788 1.80276C19.6092 1.30507 18.9677 0.89032 18.2765 0.580642C16.883 -0.0387125 15.3014 -0.154842 13.8249 0.193546C12.7853 0.436864 11.8009 0.90691 10.977 1.58156C10.8719 1.66451 10.7668 1.75852 10.6341 1.77511C10.4793 1.79723 10.33 1.72534 10.1917 1.65898C7.2553 0.221195 3.35668 1.16129 1.38249 3.77143C-0.591703 6.38156 -0.436864 10.3742 1.71982 12.835C2.93088 14.2175 4.69493 15.0359 6.51429 15.2129C6.42028 15.8876 6.26544 16.9714 6.2212 17.3253C6.03318 18.6304 5.84516 19.9853 5.6682 21.3124C5.62397 21.6442 5.85622 21.9539 6.19355 21.9982L20.5825 23.9945C20.9143 24.0387 21.224 23.8065 21.2682 23.4802C21.3401 23.0101 21.4009 22.5346 21.4562 22.0866C21.506 21.6719 21.5558 21.2516 21.6221 20.8369C21.7272 20.118 21.8267 19.388 21.9207 18.6912C21.9373 18.553 22.0424 17.8286 22.0922 17.4525C23.9336 17.7567 25.8968 17.3862 27.4286 16.3078C29.6295 14.7484 30.741 11.8673 30.3318 9.22396ZM19.6203 22.0424L7.62581 20.3779L7.73641 19.576L19.7309 21.235L19.6203 22.0424ZM27.329 14.2175C25.7364 15.6387 23.176 15.8267 21.4009 14.6433C20.9198 14.3226 20.483 13.9023 19.93 13.7364C19.377 13.5705 18.6415 13.7696 18.4922 14.3336C18.365 14.8092 18.7078 15.2737 19.0618 15.6166C19.6535 16.1862 20.3502 16.6396 21.1078 16.9604C21.0968 17.0488 21.0857 17.1152 20.9198 18.0719L20.7318 19.4101L8.73733 17.7511L8.87005 16.7668L8.93088 16.3023L9.09125 15.1797C9.89862 15.0636 10.6894 14.8092 11.4083 14.4111C11.8783 14.1511 12.3429 13.8138 12.5641 13.3217C12.7797 12.8295 12.6525 12.1548 12.1714 11.9115C11.5797 11.6129 10.9217 12.0774 10.3521 12.4092C8.40553 13.5429 5.68479 13.1226 4.17512 11.447C2.66544 9.77143 2.52719 7.02304 3.85991 5.20368C5.19263 3.37327 7.85254 2.6765 9.90415 3.60553C9.63871 4.40737 9.37327 5.20368 9.10231 6.00553C8.953 6.45898 8.80922 6.98986 9.06913 7.38802C9.45069 7.96866 10.4074 7.78064 10.8553 7.24977C11.3032 6.71889 11.4194 5.99447 11.6627 5.34193C12.4092 3.36221 14.5659 2.00184 16.6728 2.21751C18.7797 2.43318 20.6323 4.21935 20.8866 6.32074C20.953 6.84055 20.9253 7.37143 21.0194 7.88571C21.1134 8.4 21.3567 8.92534 21.8101 9.19078C22.2636 9.45622 22.9493 9.35115 23.1705 8.87557C23.2756 8.6599 23.27 8.40553 23.2645 8.16221C23.2424 7.29401 23.2203 6.43133 23.1926 5.56313C25.3051 5.26451 27.5447 6.44792 28.4682 8.36682C29.4028 10.2912 28.9217 12.7963 27.329 14.2175Z" fill="#C9C9C9"/>
<path d="M27.1962 14.1733C25.6036 15.5945 23.0432 15.7825 21.2681 14.5991C20.787 14.2783 20.3501 13.8581 19.7971 13.6922C19.2441 13.5263 18.5086 13.7253 18.3593 14.2894C18.2322 14.765 18.575 15.2295 18.9289 15.5723C19.5206 16.1419 20.2174 16.5954 20.975 16.9161C20.9639 17.0046 20.9529 17.071 20.787 18.0276L20.599 19.3659L8.6045 17.7069L8.73722 16.7226L8.79805 16.2581L8.95842 15.1355C9.76579 15.0194 10.5566 14.765 11.2755 14.3668C11.7455 14.1069 12.21 13.7696 12.4312 13.2774C12.6469 12.7853 12.5197 12.1106 12.0386 11.8673C11.4469 11.5687 10.7888 12.0332 10.2192 12.365C8.2727 13.4986 5.55197 13.0783 4.04229 11.4028C2.53261 9.72719 2.39436 6.9788 3.72708 5.15945C5.0598 3.34009 7.71971 2.64332 9.77685 3.57235C9.51141 4.37419 9.24598 5.17051 8.97501 5.97235C8.8257 6.42581 8.68192 6.95668 8.94183 7.35484C9.3234 7.93548 10.2801 7.74746 10.728 7.21659C11.1759 6.68571 11.2921 5.96129 11.5354 5.30876C12.2819 3.32903 14.4386 1.96866 16.5455 2.18433C18.6524 2.4 20.505 4.18617 20.7593 6.28756C20.8257 6.80737 20.798 7.33825 20.8921 7.85253C20.9861 8.36682 21.2294 8.89216 21.6828 9.1576C22.1363 9.42304 22.822 9.31797 23.0432 8.84239C23.1483 8.62673 23.1428 8.37235 23.1372 8.12903C23.1151 7.26083 23.093 6.39816 23.0653 5.52995C25.1778 5.23134 27.4174 6.41475 28.3409 8.33364C29.2755 10.247 28.7888 12.7521 27.1962 14.1733Z" fill="#EFEDEA"/>
</g>
<defs>
<clipPath id="clip0">
<rect width="30.4147" height="24" fill="white"/>
</clipPath>
</defs>
</svg>
